<svg width="21" height="22" viewBox="0 0 21 22" fill="none" xmlns="http://www.w3.org/2000/svg">
<path d="M17.7624 3.73129C16.821 2.78037 15.6997 2.02642 14.4639 1.5134C13.2281 1.00038 11.9025 0.738564 10.5644 0.743225C4.95792 0.743225 0.388543 5.3126 0.388543 10.9191C0.388543 12.716 0.860883 14.4616 1.74395 16.0019L0.306396 21.2797L5.69723 19.8627C7.18613 20.6739 8.85986 21.1052 10.5644 21.1052C16.1709 21.1052 20.7402 16.5358 20.7402 10.9293C20.7402 8.20825 19.6826 5.65145 17.7624 3.73129ZM10.5644 19.3801C9.04469 19.3801 7.55579 18.9694 6.25172 18.1993L5.94367 18.0144L2.73997 18.8564L3.59224 15.7349L3.38688 15.4166C2.54256 14.0683 2.09424 12.5099 2.09307 10.9191C2.09307 6.25728 5.89233 2.45802 10.5541 2.45802C12.8131 2.45802 14.9387 3.3411 16.5303 4.94294C17.3183 5.7274 17.9429 6.66048 18.3676 7.68809C18.7924 8.7157 19.009 9.8174 19.0049 10.9293C19.0254 15.5911 15.2262 19.3801 10.5644 19.3801ZM15.2056 13.0549C14.9489 12.9317 13.6962 12.3156 13.4703 12.2231C13.2341 12.141 13.0698 12.0999 12.8953 12.3464C12.7207 12.6031 12.2381 13.1781 12.0944 13.3424C11.9506 13.5169 11.7966 13.5375 11.5399 13.404C11.2832 13.2808 10.4617 13.0035 9.49649 12.141C8.73664 11.4633 8.23349 10.6316 8.07947 10.3749C7.93571 10.1181 8.05893 9.98466 8.19242 9.85117C8.30537 9.73822 8.44913 9.55339 8.57235 9.40964C8.69557 9.26588 8.74691 9.15293 8.82905 8.98864C8.9112 8.81408 8.87013 8.67032 8.80852 8.5471C8.74691 8.42389 8.23349 7.17116 8.02813 6.65774C7.82276 6.16487 7.60713 6.22648 7.45311 6.21621H6.96023C6.78567 6.21621 6.51869 6.27782 6.28252 6.53452C6.05662 6.79123 5.39945 7.40733 5.39945 8.66005C5.39945 9.91278 6.31333 11.1244 6.43655 11.2887C6.55977 11.4633 8.23349 14.0304 10.78 15.1291C11.3858 15.396 11.8582 15.5501 12.2278 15.663C12.8337 15.8581 13.3882 15.8273 13.8297 15.7657C14.3226 15.6938 15.3391 15.1496 15.5445 14.554C15.7601 13.9585 15.7601 13.4553 15.6883 13.3424C15.6164 13.2294 15.4623 13.1781 15.2056 13.0549Z" fill="#076280"/>
</svg>
