<svg width="25" height="24" viewBox="0 0 25 24" fill="none" xmlns="http://www.w3.org/2000/svg">
<path d="M4.17504 14.3632L6.32876 12.8344C6.90931 12.4168 7.56161 12.1093 8.25321 11.9273C9.06003 11.7124 9.42155 11.2715 9.42155 10.3313C9.42155 7.94501 14.9326 7.6915 14.9326 10.3313C14.9326 11.2715 15.2941 11.7124 16.1009 11.9262C16.8085 12.1158 17.4236 12.4056 18.0254 12.8344L20.1791 14.3621C21.1523 15.0542 21.6065 15.3882 21.8589 15.9206C22.0969 16.421 22.0969 17.0074 22.0969 18.1801C22.0969 20.2897 22.0969 21.3445 21.5062 22.0202C20.7908 22.8391 18.9314 22.7697 17.7895 22.7697H6.56463C5.42274 22.7697 3.60079 22.8832 2.84799 22.0202C2.2572 21.3445 2.2572 20.2897 2.2572 18.1801C2.2572 17.0074 2.2572 16.421 2.49528 15.9206C2.74879 15.3893 3.20069 15.0542 4.17504 14.3621" stroke="#076280" stroke-width="1.69575" stroke-linecap="round" stroke-linejoin="round"/>
<path d="M6.62216 2.60082C5.16945 3.01525 4.12456 3.52998 3.16785 4.15163C1.65451 5.1348 1.00531 6.90604 1.18387 8.61557C1.25882 9.33862 1.83969 9.68471 2.51203 9.49733C3.02346 9.35405 3.53488 9.21627 4.043 9.06637C5.52767 8.62549 5.87707 8.08982 6.08318 6.56987L6.62216 2.60082ZM6.62216 2.60082C10.2143 1.57577 14.1403 1.57577 17.7324 2.60082M17.7324 2.60082C19.1851 3.01525 20.23 3.52998 21.1867 4.15163C22.7001 5.1348 23.3493 6.90604 23.1707 8.61557C23.0958 9.33862 22.5149 9.68471 21.8425 9.49733C21.3322 9.35405 20.8197 9.21627 20.3116 9.06637C18.8269 8.62549 18.4775 8.08982 18.2714 6.56987L17.7324 2.60082ZM14.3817 17.2624C14.3817 17.847 14.1495 18.4077 13.736 18.8211C13.3226 19.2346 12.7619 19.4668 12.1773 19.4668C11.5926 19.4668 11.0319 19.2346 10.6185 18.8211C10.2051 18.4077 9.97288 17.847 9.97288 17.2624C9.97288 16.6777 10.2051 16.117 10.6185 15.7036C11.0319 15.2902 11.5926 15.058 12.1773 15.058C12.7619 15.058 13.3226 15.2902 13.736 15.7036C14.1495 16.117 14.3817 16.6777 14.3817 17.2624Z" stroke="#076280" stroke-width="1.69575" stroke-linecap="round" stroke-linejoin="round"/>
</svg>
