<svg width="22" height="18" viewBox="0 0 22 18" fill="none" xmlns="http://www.w3.org/2000/svg">
<path d="M5.82764 6.52344C5.42331 6.52344 5.03554 6.68406 4.74963 6.96997C4.46372 7.25587 4.3031 7.64365 4.3031 8.04798C4.3031 8.45231 4.46372 8.84009 4.74963 9.12599C5.03554 9.4119 5.42331 9.57252 5.82764 9.57252C6.23198 9.57252 6.61975 9.4119 6.90566 9.12599C7.19156 8.84009 7.35218 8.45231 7.35218 8.04798C7.35218 7.64365 7.19156 7.25587 6.90566 6.96997C6.61975 6.68406 6.23198 6.52344 5.82764 6.52344ZM10.7062 6.52344C10.3018 6.52344 9.91407 6.68406 9.62816 6.96997C9.34225 7.25587 9.18163 7.64365 9.18163 8.04798C9.18163 8.45231 9.34225 8.84009 9.62816 9.12599C9.91407 9.4119 10.3018 9.57252 10.7062 9.57252C11.1105 9.57252 11.4983 9.4119 11.7842 9.12599C12.0701 8.84009 12.2307 8.45231 12.2307 8.04798C12.2307 7.64365 12.0701 7.25587 11.7842 6.96997C11.4983 6.68406 11.1105 6.52344 10.7062 6.52344ZM14.0602 8.04798C14.0602 7.64365 14.2208 7.25587 14.5067 6.96997C14.7926 6.68406 15.1804 6.52344 15.5847 6.52344C15.989 6.52344 16.3768 6.68406 16.6627 6.96997C16.9486 7.25587 17.1092 7.64365 17.1092 8.04798C17.1092 8.45231 16.9486 8.84009 16.6627 9.12599C16.3768 9.4119 15.989 9.57252 15.5847 9.57252C15.1804 9.57252 14.7926 9.4119 14.5067 9.12599C14.2208 8.84009 14.0602 8.45231 14.0602 8.04798Z" fill="#076280"/>
<path fill-rule="evenodd" clip-rule="evenodd" d="M15.7066 0.538565C12.421 0.258342 9.11821 0.242028 5.83 0.48978L5.59461 0.508074C4.08276 0.62217 2.66982 1.3032 1.63876 2.41478C0.607689 3.52636 0.0346156 4.98642 0.0343018 6.50257V16.8902C0.0344414 17.0483 0.0755732 17.2037 0.153683 17.3412C0.231793 17.4787 0.344213 17.5936 0.479973 17.6747C0.615733 17.7558 0.770195 17.8003 0.928287 17.8039C1.08638 17.8075 1.2427 17.77 1.382 17.6951L6.15076 15.1327C6.37308 15.0132 6.6216 14.9507 6.874 14.951H17.8214C19.2021 14.951 20.3851 13.9631 20.6327 12.6056C21.1352 9.85291 21.1742 7.03555 20.7498 4.26942L20.6254 3.45349C20.5148 2.73264 20.1651 2.0699 19.6324 1.57177C19.0998 1.07363 18.4151 0.769016 17.6885 0.706875L15.7066 0.538565ZM5.96904 2.31435C9.15977 2.07361 12.3647 2.08911 15.5529 2.3607L17.5336 2.53023C18.1873 2.58633 18.7191 3.08272 18.8179 3.73157L18.9435 4.54628C19.3364 7.11159 19.2993 9.72441 18.8337 12.2775C18.7906 12.5143 18.6658 12.7285 18.4811 12.8827C18.2963 13.0369 18.0633 13.1214 17.8227 13.1215H6.874C6.31976 13.1216 5.77418 13.2591 5.28604 13.5216L1.86375 15.3608V6.50257C1.86382 5.44781 2.26232 4.43199 2.97946 3.65854C3.6966 2.88508 4.67945 2.41107 5.73121 2.33143L5.96904 2.31435Z" fill="#076280"/>
</svg>
