<?xml version="1.0" encoding="UTF-8"?>
<svg version="1.1" xmlns="http://www.w3.org/2000/svg" width="22" height="21">
<path d="M0 0 C4.29 0 8.58 0 13 0 C13.33 0.99 13.66 1.98 14 3 C14.99 3 15.98 3 17 3 C17.13501894 5.43934225 17.23403897 7.87124104 17.3125 10.3125 C17.35439453 11.00279297 17.39628906 11.69308594 17.43945312 12.40429688 C17.48828125 14.42578125 17.48828125 14.42578125 17 18 C13.73711739 20.9295774 10.86297919 21.41159982 6.5625 21.375 C5.20318359 21.38660156 5.20318359 21.38660156 3.81640625 21.3984375 C1 21 1 21 -5 18 C-5 13.38 -5 8.76 -5 4 C-3.68 3.67 -2.36 3.34 -1 3 C-0.67 2.01 -0.34 1.02 0 0 Z M1 2 C1 7.28 1 12.56 1 18 C4.63 18 8.26 18 12 18 C12.02685095 15.52076199 12.04676547 13.0418116 12.0625 10.5625 C12.07087891 9.85544922 12.07925781 9.14839844 12.08789062 8.41992188 C12.09653588 6.61306441 12.05220011 4.80612397 12 3 C10.96593327 1.74050951 10.96593327 1.74050951 8.71484375 1.90234375 C6.14322917 1.93489583 3.57161458 1.96744792 1 2 Z M-3 5 C-3 8.63 -3 12.26 -3 16 C-2.67 16 -2.34 16 -2 16 C-2 12.37 -2 8.74 -2 5 C-2.33 5 -2.66 5 -3 5 Z M14 5 C14 8.63 14 12.26 14 16 C14.33 16 14.66 16 15 16 C15 12.37 15 8.74 15 5 C14.67 5 14.34 5 14 5 Z " fill="#066180" transform="translate(5,0)"/>
<path d="M0 0 C2.31 0 4.62 0 7 0 C7 0.66 7 1.32 7 2 C4.69 2 2.38 2 0 2 C0 1.34 0 0.68 0 0 Z " fill="#066080" transform="translate(8,9)"/>
<path d="M0 0 C2.31 0 4.62 0 7 0 C7 0.66 7 1.32 7 2 C4.69 2 2.38 2 0 2 C0 1.34 0 0.68 0 0 Z " fill="#066180" transform="translate(8,5)"/>
<path d="M0 0 C1.98 0 3.96 0 6 0 C6.33 0.66 6.66 1.32 7 2 C4.69 2 2.38 2 0 2 C0 1.34 0 0.68 0 0 Z " fill="#056080" transform="translate(8,13)"/>
</svg>
