<svg width="22" height="21" viewBox="0 0 22 21" fill="none" xmlns="http://www.w3.org/2000/svg">
<path d="M17.79 4.01025H18.2988C19.7374 4.01025 20.4568 4.01025 20.9034 4.46622C21.3511 4.92012 21.3511 5.65278 21.3511 7.11913V14.3732C21.3511 15.8385 21.3511 16.5712 20.9034 17.0261C20.4568 17.4821 19.7374 17.4821 18.2988 17.4821H17.79M4.56316 4.01025H4.05443C2.61576 4.01025 1.89642 4.01025 1.44975 4.46622C1.00208 4.92012 1.00208 5.65278 1.00208 7.11913V14.3732C1.00208 15.8385 1.00208 16.5712 1.44975 17.0261C1.8954 17.4821 2.61474 17.4821 4.05443 17.4821H4.56316M13.7202 6.08284H8.63297M13.7202 10.228H8.63297M13.7202 14.3732H8.63297M17.79 15.4095V5.04655C17.79 3.09209 17.79 2.1159 17.1938 1.50864C16.5976 0.901367 15.6392 0.901367 13.7202 0.901367H8.63297C6.71405 0.901367 5.75561 0.901367 5.15939 1.50864C4.56316 2.1159 4.56316 3.09209 4.56316 5.04655V15.4095C4.56316 17.3639 4.56316 18.3401 5.15939 18.9474C5.75561 19.5547 6.71405 19.5547 8.63297 19.5547H13.7202C15.6392 19.5547 16.5976 19.5547 17.1938 18.9474C17.79 18.3401 17.79 17.3639 17.79 15.4095Z" stroke="#076280" stroke-width="1.27182" stroke-linecap="round" stroke-linejoin="round"/>
</svg>
