<svg width="12" height="14" viewBox="0 0 12 14" fill="none" xmlns="http://www.w3.org/2000/svg">
<mask id="path-1-outside-1_436_4084" maskUnits="userSpaceOnUse" x="-0.182861" y="-1.70996" width="13" height="17" fill="black">
<rect fill="white" x="-0.182861" y="-1.70996" width="13" height="17"/>
<path d="M8.81548 3.07673V3.3425H11.0176V4.89918H8.70158C8.56236 5.74712 8.29659 6.42422 7.90426 6.93045C7.52458 7.42403 6.98038 7.78472 6.27165 8.01253C5.56292 8.22768 4.64536 8.33526 3.51899 8.33526V9.53124C3.51899 10.2273 3.66453 10.7778 3.95562 11.1828C4.25936 11.5878 4.76559 11.7903 5.47432 11.7903C6.76523 11.7903 7.41068 11.0626 7.41068 9.60717H9.40398C9.39132 10.8854 9.04329 11.8536 8.35987 12.5117C7.68911 13.1572 6.7146 13.4799 5.43636 13.4799C4.15811 13.4799 3.17728 13.1255 2.49386 12.4168C1.8231 11.7081 1.48772 10.7146 1.48772 9.43632V6.83553C2.89252 6.83553 3.92398 6.79756 4.58208 6.72163C5.24019 6.63304 5.72744 6.45586 6.04384 6.19008C6.37289 5.92431 6.58804 5.49401 6.68929 4.89918H0.690396V3.3425H6.78421V3.07673V1.65294H0.690396V0.0772837H11.0176V1.65294H8.81548V3.07673Z"/>
</mask>
<path d="M8.81548 3.3425H7.9676V4.19038H8.81548V3.3425ZM11.0176 3.3425H11.8655V2.49463H11.0176V3.3425ZM11.0176 4.89918V5.74706H11.8655V4.89918H11.0176ZM8.70158 4.89918V4.0513H7.98155L7.8649 4.76182L8.70158 4.89918ZM7.90426 6.93045L7.23408 6.41106L7.23221 6.41349L7.90426 6.93045ZM6.27165 8.01253L6.51797 8.82396L6.5311 8.81973L6.27165 8.01253ZM3.51899 8.33526V7.48738H2.67111V8.33526H3.51899ZM3.95562 11.1828L3.26713 11.6777L3.27215 11.6847L3.27731 11.6916L3.95562 11.1828ZM7.41068 9.60717V8.7593H6.5628V9.60717H7.41068ZM9.40398 9.60717L10.2518 9.61557L10.2603 8.7593H9.40398V9.60717ZM8.35987 12.5117L8.94777 13.1227L8.94799 13.1224L8.35987 12.5117ZM2.49386 12.4168L1.87803 12.9996L1.88352 13.0053L2.49386 12.4168ZM1.48772 6.83553V5.98766H0.63984V6.83553H1.48772ZM4.58208 6.72163L4.67927 7.56392L4.68725 7.563L4.6952 7.56193L4.58208 6.72163ZM6.04384 6.19008L5.51109 5.53048L5.50474 5.53561L5.49849 5.54086L6.04384 6.19008ZM6.68929 4.89918L7.52515 5.04145L7.69368 4.0513H6.68929V4.89918ZM0.690396 4.89918H-0.157482V5.74706H0.690396V4.89918ZM0.690396 3.3425V2.49463H-0.157482V3.3425H0.690396ZM6.78421 3.3425V4.19038H7.63209V3.3425H6.78421ZM6.78421 1.65294H7.63209V0.805065H6.78421V1.65294ZM0.690396 1.65294H-0.157482V2.50082H0.690396V1.65294ZM0.690396 0.0772839V-0.770594H-0.157482V0.0772839H0.690396ZM11.0176 0.0772839H11.8655V-0.770594H11.0176V0.0772839ZM11.0176 1.65294V2.50082H11.8655V1.65294H11.0176ZM8.81548 1.65294V0.805065H7.9676V1.65294H8.81548ZM7.9676 3.07673V3.3425H9.66336V3.07673H7.9676ZM8.81548 4.19038H11.0176V2.49463H8.81548V4.19038ZM10.1697 3.3425V4.89918H11.8655V3.3425H10.1697ZM11.0176 4.0513H8.70158V5.74706H11.0176V4.0513ZM7.8649 4.76182C7.74105 5.5162 7.51551 6.04793 7.23408 6.41107L8.57443 7.44984C9.07766 6.8005 9.38368 5.97805 9.53825 5.03654L7.8649 4.76182ZM7.23221 6.41349C6.97656 6.74584 6.58978 7.01967 6.01219 7.20533L6.5311 8.81973C7.37097 8.54978 8.0726 8.10223 8.5763 7.44741L7.23221 6.41349ZM6.02535 7.20121C5.42653 7.383 4.60056 7.48738 3.51899 7.48738V9.18313C4.69016 9.18313 5.6993 9.07236 6.51794 8.82385L6.02535 7.20121ZM2.67111 8.33526V9.53124H4.36687V8.33526H2.67111ZM2.67111 9.53124C2.67111 10.3366 2.83862 11.0815 3.26713 11.6777L4.64411 10.688C4.49044 10.4742 4.36687 10.118 4.36687 9.53124H2.67111ZM3.27731 11.6916C3.79892 12.387 4.61241 12.6382 5.47432 12.6382V10.9424C4.91877 10.9424 4.7198 10.7886 4.63392 10.6741L3.27731 11.6916ZM5.47432 12.6382C6.27859 12.6382 7.02902 12.4068 7.56091 11.8071C8.0756 11.2269 8.25855 10.4422 8.25855 9.60717H6.5628C6.5628 10.2276 6.42303 10.5345 6.29227 10.6819C6.17871 10.81 5.96096 10.9424 5.47432 10.9424V12.6382ZM7.41068 10.4551H9.40398V8.7593H7.41068V10.4551ZM8.55614 9.59878C8.54493 10.7311 8.24062 11.4494 7.77175 11.901L8.94799 13.1224C9.84595 12.2577 10.2377 11.0398 10.2518 9.61557L8.55614 9.59878ZM7.77197 11.9007C7.31035 12.3449 6.57851 12.632 5.43636 12.632V14.3278C6.85069 14.3278 8.06786 13.9694 8.94777 13.1227L7.77197 11.9007ZM5.43636 12.632C4.31631 12.632 3.58391 12.3257 3.1042 11.8282L1.88352 13.0053C2.77065 13.9253 3.99992 14.3278 5.43636 14.3278V12.632ZM3.10967 11.834C2.62956 11.3267 2.33559 10.567 2.33559 9.43632H0.63984C0.63984 10.8621 1.01664 12.0894 1.87805 12.9996L3.10967 11.834ZM2.33559 9.43632V6.83553H0.63984V9.43632H2.33559ZM1.48772 7.68341C2.89742 7.68341 3.96985 7.64577 4.67927 7.56392L4.4849 5.87934C3.8781 5.94936 2.88762 5.98766 1.48772 5.98766V7.68341ZM4.6952 7.56193C5.42479 7.46371 6.09604 7.25355 6.58919 6.8393L5.49849 5.54086C5.35885 5.65816 5.05559 5.80236 4.46897 5.88133L4.6952 7.56193ZM6.57659 6.84968C7.12317 6.40821 7.40387 5.75396 7.52515 5.04145L5.85344 4.75691C5.77222 5.23405 5.62261 5.4404 5.51109 5.53048L6.57659 6.84968ZM6.68929 4.0513H0.690396V5.74706H6.68929V4.0513ZM1.53827 4.89918V3.3425H-0.157482V4.89918H1.53827ZM0.690396 4.19038H6.78421V2.49463H0.690396V4.19038ZM7.63209 3.3425V3.07673H5.93633V3.3425H7.63209ZM7.63209 3.07673V1.65294H5.93633V3.07673H7.63209ZM6.78421 0.805065H0.690396V2.50082H6.78421V0.805065ZM1.53827 1.65294V0.0772839H-0.157482V1.65294H1.53827ZM0.690396 0.925161H11.0176V-0.770594H0.690396V0.925161ZM10.1697 0.0772839V1.65294H11.8655V0.0772839H10.1697ZM11.0176 0.805065H8.81548V2.50082H11.0176V0.805065ZM7.9676 1.65294V3.07673H9.66336V1.65294H7.9676Z" fill="white" mask="url(#path-1-outside-1_436_4084)"/>
</svg>
